<?xml version="1.0" ?><svg viewBox="0 0 32 32" xmlns="http://www.w3.org/2000/svg"><title/><g data-name="13-Cloud Network-Process" id="_13-Cloud_Network-Process"><path d="M26.64,11.2A11,11,0,0,0,5,13.08,6,6,0,0,0,6,25h8V23H6a4,4,0,0,1,0-8,1,1,0,0,0,1-1,9,9,0,0,1,17.83-1.75,1,1,0,0,0,.85.8A5,5,0,0,1,30,18h2A7,7,0,0,0,26.64,11.2Z"/><path d="M26.43,22l1.27-1.27-1.41-1.41L25,20.57a4,4,0,0,0-1-.42V18H22v2.14a4,4,0,0,0-1,.42l-1.27-1.27-1.41,1.41L19.57,22a4,4,0,0,0-.42,1H17v2h2.14a4,4,0,0,0,.42,1l-1.27,1.27,1.41,1.41L21,27.43a4,4,0,0,0,1,.42V30h2V27.86a4,4,0,0,0,1-.42l1.27,1.27,1.41-1.41L26.43,26a4,4,0,0,0,.42-1H29V23H26.86A4,4,0,0,0,26.43,22ZM23,26a2,2,0,1,1,2-2A2,2,0,0,1,23,26Z"/></g></svg>