<svg xmlns="http://www.w3.org/2000/svg" viewBox="0 0 380.34 93.47"><defs><style>.cls-1,.cls-4{fill:#88aa5b;}.cls-2{fill:#231f20;}.cls-3{fill:#a9cb79;}.cls-4{font-size:32px;font-family:Cabin-Regular, Cabin;}</style></defs><title>Asset 1</title><g id="Layer_2" data-name="Layer 2"><g id="Layer_1-2" data-name="Layer 1"><path class="cls-1" d="M89.59,39.52a7.24,7.24,0,0,1-5.41-1.92c-2.48-2.51-2.48-6.77-2.47-6.8v-.19c0-.09-.37-9.27-.37-15.84,0-9.63-9.42-12.17-14.4-12.17H25.87c-5,0-14.4,2.54-14.4,12.17,0,6.56-.37,15.75-.37,15.84v.19s0,4.3-2.46,6.78a7.19,7.19,0,0,1-5.43,1.94,3.22,3.22,0,0,0,0,6.43,7.24,7.24,0,0,1,5.41,1.92c2.48,2.51,2.48,6.78,2.48,6.8v.2s.1,2.44.19,5.65c2.74-2.41,6.23-3.44,9.76-4.2,8.11-16.86,26.47-17.47,37.83-6.45,6.38.88,7.82,1.66,12.35,6.5,2,.7,4.07,1.29,6,2.11A19.47,19.47,0,0,1,81.5,60.9c.1-3.4.2-6,.2-6v-.19s0-4.29,2.45-6.77A7.19,7.19,0,0,1,89.59,46a3.22,3.22,0,0,0,0-6.43ZM61.07,23C60,28.16,56.65,31.54,52,33.85a16.37,16.37,0,0,1-7.33,1.81,15,15,0,0,1-4.78-.79c-.81-.27-2.41-1.32-3.08-1.32C36,33.55,35,37,33.5,37c-1.06,0-1.37-.52-1.83-1.29a1.25,1.25,0,0,1-.26-.73c0-1.74,3.31-3.1,3.31-4.07,0-.15-.44-1-.5-1.37a10.14,10.14,0,0,1-.15-1.74c0-5.33,4.23-9.13,9-10.7,3.43-1.14,10.73.18,13-2,.92-.85,1.37-1.64,2.78-1.64,1.89,0,2.51,4.91,2.51,6.33A16.86,16.86,0,0,1,61.07,23Z"/><path class="cls-2" d="M118.33,52.24a16.58,16.58,0,0,1-6.52-6.74,19.91,19.91,0,0,1-2.23-9.43,20.21,20.21,0,0,1,2-9.11,15.76,15.76,0,0,1,6-6.55A17.28,17.28,0,0,1,126.86,18a15.39,15.39,0,0,1,11,4q4.22,4,4.21,10.94a19.39,19.39,0,0,1-.29,3.46H116.2q.66,6.84,4.18,9.72A13.88,13.88,0,0,0,129.45,49a24.31,24.31,0,0,0,10.15-2.09l.87,5.11a28.8,28.8,0,0,1-11.81,2.74A20.31,20.31,0,0,1,118.33,52.24Zm17-20.34a8.08,8.08,0,0,0-2.16-6q-2.16-2.16-6.48-2.16a9.71,9.71,0,0,0-6.56,2,11.47,11.47,0,0,0-3.38,6.09Z"/><path class="cls-2" d="M154.18,52.34A15.39,15.39,0,0,1,148,45.83a20.29,20.29,0,0,1-2.08-9.25q0-8.35,4.71-13.47t14-5.11a21.38,21.38,0,0,1,9.65,2.09l-1,5.69a20.84,20.84,0,0,0-8.79-2q-5.76,0-8.85,3.28t-3.1,9.25q0,6,3,9.36T164.3,49a19.88,19.88,0,0,0,9-2.16l.86,5.19a15.29,15.29,0,0,1-4.35,1.87,20.7,20.7,0,0,1-5.73.79A19.51,19.51,0,0,1,154.18,52.34Z"/><path class="cls-2" d="M185.4,52.31a15.9,15.9,0,0,1-6.05-6.59,20.51,20.51,0,0,1-2.09-9.36A20.51,20.51,0,0,1,179.35,27a15.9,15.9,0,0,1,6.05-6.59,19.3,19.3,0,0,1,18.68,0A15.84,15.84,0,0,1,210.16,27a20.51,20.51,0,0,1,2.09,9.36,20.51,20.51,0,0,1-2.09,9.36,15.84,15.84,0,0,1-6.08,6.59,19.3,19.3,0,0,1-18.68,0Zm17.38-6.66q2.85-3.32,2.85-9.29t-2.85-9.29c-1.89-2.21-4.57-3.31-8-3.31s-6.14,1.1-8,3.31-2.85,5.31-2.85,9.29,1,7.08,2.85,9.29,4.57,3.31,8,3.31S200.89,47.86,202.78,45.65Z"/><path class="cls-2" d="M224.45,52.24A16.13,16.13,0,0,1,218,45.5a20.48,20.48,0,0,1-2.16-9.43A20.91,20.91,0,0,1,218,26.53a16.06,16.06,0,0,1,6.48-6.77A20.82,20.82,0,0,1,235,17.28a19.46,19.46,0,0,1,9.65,2.3l-.72,7.2a17.34,17.34,0,0,0-8.06-2,10.4,10.4,0,0,0-8,3.09A11.58,11.58,0,0,0,225,36.07a11.47,11.47,0,0,0,3,8.1,10.13,10.13,0,0,0,7.84,3.21A16.28,16.28,0,0,0,244,45l.79,7.56a18.39,18.39,0,0,1-4.57,1.58,25.29,25.29,0,0,1-5.51.58A20.2,20.2,0,0,1,224.45,52.24Z"/><path class="cls-2" d="M252.35,52.09a10,10,0,0,1-2.3-6.8V0H259V41.62a17.26,17.26,0,0,0,.32,4.06,1.82,1.82,0,0,0,1.15,1.44,10.86,10.86,0,0,0,2.85.26l-.8,7.34h-3.24Q254.66,54.72,252.35,52.09Z"/><path class="cls-2" d="M274.38,52.2a17,17,0,0,1-6.4-6.77,19.78,19.78,0,0,1-2.24-9.36A20.21,20.21,0,0,1,268,26.64a16.86,16.86,0,0,1,6.4-6.84,20.57,20.57,0,0,1,19.73,0,16.89,16.89,0,0,1,6.41,6.84,20.2,20.2,0,0,1,2.23,9.43,19.78,19.78,0,0,1-2.23,9.36,17,17,0,0,1-6.41,6.77,20.57,20.57,0,0,1-19.73,0Zm16.74-7.92a12.7,12.7,0,0,0,2.49-8.21,13,13,0,0,0-2.49-8.31,9.1,9.1,0,0,0-13.75,0,13,13,0,0,0-2.48,8.31,12.76,12.76,0,0,0,2.48,8.21,9.17,9.17,0,0,0,13.75,0Z"/><path class="cls-2" d="M339.62,18V54h-8.36l-.14-2.16a15.78,15.78,0,0,1-3.82,2,11.67,11.67,0,0,1-4.17.83q-8,0-11.63-4.61t-3.64-12.74V18h8.93V37.37c0,3.36.57,5.84,1.69,7.45s2.94,2.41,5.44,2.41a8.52,8.52,0,0,0,6.77-3V18Z"/><path class="cls-2" d="M380.08,0V54h-8.42l-.15-2.3A16.14,16.14,0,0,1,367.16,54a16.93,16.93,0,0,1-5.37.76A15.53,15.53,0,0,1,347,45.43a22.3,22.3,0,0,1-1.94-9.36A22.3,22.3,0,0,1,347,26.71a16.46,16.46,0,0,1,24.12-6.41V0ZM369.46,44.35q2.12-3,2.12-8.28t-2.12-8.28a7.29,7.29,0,0,0-6.37-3,7.71,7.71,0,0,0-6.52,3.09,13.29,13.29,0,0,0-2.34,8.21,13.27,13.27,0,0,0,2.34,8.21,7.72,7.72,0,0,0,6.52,3.1A7.27,7.27,0,0,0,369.46,44.35Z"/><path class="cls-3" d="M45.15,66.11C41,66.15,39,68,35.42,70.34a28.42,28.42,0,0,0-3-5,16.6,16.6,0,0,0-3.37-3.14c-3.9-2.74-10.53-2-14.57,1.28a10.47,10.47,0,0,0-3,4c0,1.12,0,2.22,0,3.26,0,9.63,9.42,12.17,14.4,12.17H66.93c5,0,14.4-2.54,14.4-12.17,0-1.21,0-2.51,0-3.83A12.9,12.9,0,0,0,74.64,62c-2-.71-4.08-1.16-5.89-1.66-4.47-5.41-4.75-5.56-12.11-6.51C45.4,43.47,32.51,44.48,26.83,55.62c5.59,1.72,7.59,4.72,10.44,8.08,9.1-4.12,16.16-2,19.15,6.64-.65.56-2.12,1.25-3,2C51.42,70.34,49.77,66.06,45.15,66.11Z"/><path class="cls-1" d="M51.76,22c-5.93,0-9.74,2.48-13.61,6.75a1.07,1.07,0,0,0,1.51,1.51c.82-.74,1.55-1.54,2.36-2.3a13,13,0,0,1,9.74-3.81,1.08,1.08,0,0,0,0-2.15Z"/><text class="cls-4" transform="translate(306.9 85.47)">alpha</text></g></g></svg>