<?xml version="1.0" encoding="utf-8"?>
<!-- Generator: Adobe Illustrator 22.0.0, SVG Export Plug-In . SVG Version: 6.00 Build 0)  -->
<svg version="1.1" xmlns="http://www.w3.org/2000/svg" xmlns:xlink="http://www.w3.org/1999/xlink" x="0px" y="0px"
	 viewBox="0 0 385 82.3" style="enable-background:new 0 0 385 82.3;" xml:space="preserve">
<style type="text/css">
	.st0{fill:#FFFFFF;}
	.st1{fill:#231F20;}
	.st2{fill:#88AA5B;}
	.st3{fill:#A9CB79;}
</style>
<g id="Layer_1">
	<path class="st0" d="M90.9,38.3c-2.4,0-3.9-0.6-5.2-1.9c-2.5-2.5-2.5-6.8-2.5-6.8l0-0.1l0-0.1c0-0.1-0.4-9.3-0.4-15.8
		c0-9.6-9.4-12.2-14.4-12.2H27.4c-5,0-14.4,2.5-14.4,12.2c0,6.6-0.4,15.8-0.4,15.8l0,0.1l0,0.1c0,0,0,4.3-2.5,6.8
		c-1.3,1.3-3.3,1.9-5.6,1.9c-1.8,0-3.2,1.4-3.2,3.2s1.4,3.2,3.2,3.2c2.4,0,4.3,0.6,5.6,1.9c2.5,2.5,2.5,6.8,2.5,6.8l0,0.1l0,0.1
		c0,0.1,0.4,9.3,0.4,15.8c0,9.6,9.4,12.2,14.4,12.2h41.1c5,0,14.4-2.5,14.4-12.2c0-6.6,0.4-15.8,0.4-15.8l0-0.1l0-0.1
		c0,0,0-4.3,2.5-6.8c1.3-1.3,2.9-1.9,5.2-1.9c1.8,0,3.2-1.4,3.2-3.2S92.7,38.3,90.9,38.3z"/>
	<title>ecocloud-logos_full_colour</title>
	<path class="st1" d="M119.8,57c-2.8-1.6-5-3.9-6.5-6.7c-1.5-2.9-2.3-6.2-2.2-9.4c0-3.2,0.7-6.3,2.1-9.1c1.3-2.7,3.4-5,6-6.5
		c2.8-1.7,6-2.5,9.2-2.4c4.1-0.2,8,1.3,11,4c2.8,2.7,4.2,6.3,4.2,10.9c0,1.2-0.1,2.3-0.3,3.5h-25.6c0.4,4.6,1.8,7.8,4.2,9.7
		c2.6,2,5.8,3,9.1,2.9c3.5,0,7-0.7,10.2-2.1l0.9,5.1c-3.7,1.7-7.7,2.7-11.8,2.7C126.6,59.6,123,58.7,119.8,57z M136.8,36.6
		c0.1-2.2-0.6-4.4-2.2-6c-1.4-1.4-3.6-2.2-6.5-2.2c-2.4-0.2-4.7,0.6-6.5,2c-1.7,1.6-2.9,3.8-3.4,6.1L136.8,36.6z"/>
	<path class="st1" d="M155.7,57.1c-2.7-1.5-4.8-3.7-6.2-6.5c-1.4-2.9-2.1-6.1-2.1-9.3c0-5.6,1.6-10,4.7-13.5c3.1-3.4,7.8-5.1,14-5.1
		c3.3-0.1,6.7,0.6,9.7,2.1l-1,5.7c-2.7-1.3-5.7-2-8.8-2c-3.8,0-6.8,1.1-8.9,3.3S154,37,154,41c0,4,1,7.1,3,9.4
		c2,2.2,4.9,3.4,8.7,3.4c3.1,0,6.2-0.7,9-2.2l0.9,5.2c-1.3,0.9-2.8,1.5-4.4,1.9c-1.9,0.5-3.8,0.8-5.7,0.8
		C162.1,59.5,158.7,58.7,155.7,57.1z"/>
	<path class="st1" d="M186.9,57c-2.6-1.6-4.7-3.9-6-6.6c-2.8-5.9-2.8-12.8,0-18.7c1.3-2.7,3.4-5,6-6.6c5.8-3.2,12.9-3.2,18.7,0
		c2.6,1.6,4.7,3.9,6.1,6.6c2.8,5.9,2.8,12.8,0,18.7c-1.4,2.7-3.5,5-6.1,6.6C199.8,60.3,192.7,60.3,186.9,57z M204.3,50.4
		c1.9-2.2,2.8-5.3,2.8-9.3c0-4-0.9-7.1-2.8-9.3c-4.4-4.4-11.6-4.4-16.1,0c-1.9,2.2-2.8,5.3-2.8,9.3c0,4,1,7.1,2.8,9.3
		C192.7,54.8,199.9,54.8,204.3,50.4z"/>
	<path class="st1" d="M226,57c-2.8-1.6-5-3.9-6.4-6.7c-1.5-2.9-2.2-6.2-2.2-9.4c0-3.3,0.7-6.6,2.2-9.5c1.4-2.9,3.7-5.2,6.5-6.8
		c3.2-1.7,6.8-2.6,10.5-2.5c3.4-0.1,6.7,0.7,9.6,2.3l-0.7,7.2c-2.5-1.3-5.3-2-8.1-2c-3-0.2-5.9,1-8,3.1c-2,2.3-3,5.2-2.9,8.2
		c-0.1,3,1,5.9,3,8.1c2,2.2,4.9,3.3,7.9,3.2c2.9,0,5.7-0.9,8.2-2.4l0.8,7.6c-1.4,0.7-3,1.2-4.5,1.6c-1.8,0.4-3.7,0.6-5.5,0.6
		C232.7,59.6,229.1,58.7,226,57z"/>
	<path class="st1" d="M253.9,56.8c-1.6-1.9-2.4-4.3-2.3-6.8V4.7h8.9v41.6c0,1.4,0.1,2.7,0.3,4.1c0.1,0.6,0.5,1.2,1.1,1.4
		c0.9,0.2,1.9,0.3,2.9,0.2l-0.8,7.3h-3.2C257.7,59.5,255.4,58.6,253.9,56.8z"/>
	<path class="st1" d="M275.9,56.9c-2.7-1.6-4.9-4-6.4-6.8c-1.5-2.9-2.3-6.1-2.2-9.4c0-3.3,0.7-6.5,2.2-9.4c1.4-2.8,3.7-5.2,6.4-6.8
		c6.1-3.4,13.6-3.4,19.7,0c2.7,1.6,5,4,6.4,6.8c1.5,2.9,2.3,6.2,2.2,9.4c0,3.3-0.7,6.5-2.2,9.4c-1.5,2.8-3.7,5.2-6.4,6.8
		C289.5,60.3,282,60.3,275.9,56.9z M292.6,49c1.7-2.4,2.6-5.3,2.5-8.2c0.2-3-0.7-5.9-2.5-8.3c-3.3-3.8-9.1-4.2-12.9-0.9
		c-0.3,0.3-0.6,0.6-0.9,0.9c-1.8,2.4-2.6,5.3-2.5,8.3c-0.1,2.9,0.7,5.8,2.5,8.2c3.4,3.8,9.2,4.1,13,0.8
		C292.1,49.5,292.4,49.3,292.6,49z"/>
	<path class="st1" d="M341.1,22.7v36h-8.4l-0.1-2.1c-1.2,0.8-2.5,1.5-3.9,2c-1.3,0.5-2.7,0.8-4.2,0.8c-5.3,0-9.2-1.5-11.6-4.6
		c-2.4-3.1-3.6-7.3-3.6-12.7V22.7h8.9v19.4c0,3.3,0.6,5.8,1.7,7.4c1.1,1.6,2.9,2.4,5.4,2.4c2.6,0.1,5.1-1,6.8-3V22.7H341.1z"/>
	<path class="st1" d="M381.6,4.7v54h-8.4l-0.1-2.3c-1.3,1-2.8,1.7-4.4,2.3c-1.7,0.5-3.6,0.8-5.4,0.8c-6.4,0.2-12.2-3.5-14.8-9.3
		c-2.6-6-2.6-12.7,0-18.7c4-8.2,13.8-11.6,22-7.6c0.7,0.4,1.5,0.8,2.1,1.2V4.7H381.6z M371,49.1c1.4-2,2.1-4.8,2.1-8.3
		c0-3.5-0.7-6.3-2.1-8.3c-1.5-2-3.9-3.2-6.4-3c-2.5-0.1-5,1-6.5,3.1c-1.6,2.4-2.5,5.3-2.3,8.2c-0.1,2.9,0.7,5.8,2.3,8.2
		c1.5,2,4,3.2,6.5,3.1C367.1,52.3,369.5,51.1,371,49.1z"/>
	<g>
		<path class="st2" d="M91.1,38.3c-2,0.1-3.9-0.6-5.4-1.9c-2.5-2.5-2.5-6.8-2.5-6.8v-0.2c0-0.1-0.4-9.3-0.4-15.8
			c0-9.6-9.4-12.2-14.4-12.2H27.4c-5,0-14.4,2.5-14.4,12.2c0,6.6-0.4,15.8-0.4,15.8v0.2c0,0,0,4.3-2.5,6.8c-1.4,1.4-3.4,2.1-5.4,2
			c-1.8-0.1-3.3,1.3-3.4,3c-0.1,1.8,1.3,3.3,3,3.4c0.1,0,0.2,0,0.4,0c2-0.1,3.9,0.5,5.4,1.9c2.5,2.5,2.5,6.8,2.5,6.8v0.2
			c0,0.1,0.1,2.4,0.2,5.7c2.7-2.4,6.2-3.4,9.8-4.2c8.1-16.9,26.5-17.5,37.8-6.5c6.4,0.9,7.8,1.7,12.4,6.5c2,0.7,4.1,1.3,6,2.1
			c1.5,0.6,2.9,1.4,4.3,2.4c0.1-3.4,0.2-6,0.2-6v-0.2c0,0,0-4.3,2.4-6.8c1.5-1.4,3.4-2.1,5.4-2c1.8-0.1,3.1-1.6,3-3.4
			C94,39.6,92.7,38.3,91.1,38.3L91.1,38.3z M62.6,21.7c-1.1,5.2-4.4,8.6-9.1,10.9c-2.3,1.2-4.8,1.8-7.3,1.8c-1.6,0-3.2-0.3-4.8-0.8
			c-0.8-0.3-2.4-1.3-3.1-1.3c-0.8,0-1.8,3.4-3.3,3.4c-1,0-1.4-0.5-1.8-1.3c-0.2-0.2-0.3-0.5-0.3-0.7c0-1.7,3.3-3.1,3.3-4.1
			c0-0.2-0.4-1-0.5-1.4c-0.1-0.6-0.2-1.2-0.2-1.7c0-5.3,4.2-9.1,9-10.7c3.4-1.1,10.7,0.2,13-2c0.9-0.8,1.4-1.6,2.8-1.6
			c1.9,0,2.5,4.9,2.5,6.3C62.9,19.6,62.8,20.6,62.6,21.7z"/>
		<path class="st3" d="M46.7,64.8c-4.2,0-6.2,1.9-9.7,4.2c-0.8-1.8-1.8-3.4-3-5c-1-1.2-2.1-2.3-3.4-3.1c-3.9-2.7-10.5-2-14.6,1.3
			c-1.3,1.1-2.3,2.4-3,4c0,1.1,0,2.2,0,3.3c0,9.6,9.4,12.2,14.4,12.2h41.1c5,0,14.4-2.6,14.4-12.2c0-1.2,0-2.5,0-3.8
			c-1.6-2.3-4-4-6.7-4.9c-2-0.7-4.1-1.2-5.9-1.7c-4.5-5.4-4.7-5.6-12.1-6.5C46.9,42.3,34,43.3,28.3,54.4c5.6,1.7,7.6,4.7,10.4,8.1
			c9.1-4.1,16.2-2,19.1,6.7c-0.7,0.6-2.1,1.2-3,2C52.9,69.1,51.3,64.8,46.7,64.8z"/>
		<path class="st2" d="M53.3,20.7c-5.9,0-9.7,2.5-13.6,6.8c-0.2,0.2-0.3,0.5-0.3,0.8c0,0.6,0.5,1.1,1,1.1c0.3,0,0.6-0.1,0.8-0.3
			c0.8-0.7,1.6-1.5,2.4-2.3c2.6-2.6,6.1-4,9.7-3.8c0.6,0,1.1-0.5,1.1-1.1C54.3,21.2,53.9,20.7,53.3,20.7
			C53.3,20.7,53.3,20.7,53.3,20.7z"/>
	</g>
</g>
<g id="Layer_2">
</g>
</svg>
