<svg id="Layer_1" data-name="Layer 1" xmlns="http://www.w3.org/2000/svg" viewBox="0 0 379.54 85.73"><defs><style>.cls-1{fill:#88aa5b;}.cls-2{fill:#231f20;}.cls-3{fill:#a9cb79;}</style></defs><title>full_colour_with_beta_tag</title><path class="cls-1" d="M89.32,39.65a7.22,7.22,0,0,1-5.4-1.92c-2.49-2.51-2.48-6.77-2.48-6.8v-.19c0-.09-.38-9.27-.38-15.85,0-9.62-9.42-12.16-14.4-12.16H25.6c-5,0-14.4,2.54-14.4,12.16,0,6.57-.37,15.76-.37,15.85v.19s0,4.3-2.46,6.77A7.18,7.18,0,0,1,3,39.65a3.22,3.22,0,1,0,0,6.43A7.22,7.22,0,0,1,8.35,48c2.49,2.51,2.48,6.78,2.48,6.8V55s.1,2.45.19,5.66c2.74-2.42,6.24-3.44,9.77-4.2C28.89,39.58,47.25,39,58.61,50c6.38.89,7.82,1.66,12.36,6.5,2,.7,4.06,1.3,6,2.11A19.1,19.1,0,0,1,81.23,61c.1-3.4.2-6,.21-6V54.8s0-4.3,2.45-6.77a7.21,7.21,0,0,1,5.43-2,3.22,3.22,0,0,0,0-6.43ZM60.8,23.08c-1.07,5.2-4.42,8.59-9.07,10.9a16.54,16.54,0,0,1-7.34,1.8A15,15,0,0,1,39.61,35c-.81-.27-2.41-1.33-3.08-1.33-.84,0-1.84,3.42-3.3,3.42-1,0-1.37-.52-1.82-1.29a1.2,1.2,0,0,1-.27-.74c0-1.74,3.31-3.09,3.31-4.06,0-.15-.43-1-.5-1.38a10.05,10.05,0,0,1-.15-1.74c0-5.32,4.23-9.12,9-10.69,3.43-1.14,10.73.18,13.05-2,.92-.85,1.38-1.64,2.78-1.64,1.89,0,2.51,4.91,2.51,6.33A16.1,16.1,0,0,1,60.8,23.08Z"/><path class="cls-2" d="M118.06,52.36a16.55,16.55,0,0,1-6.52-6.73,20,20,0,0,1-2.23-9.43,20.34,20.34,0,0,1,2-9.11,15.76,15.76,0,0,1,6-6.55,17.3,17.3,0,0,1,9.25-2.41,15.39,15.39,0,0,1,11,4q4.22,4,4.21,10.94a20.46,20.46,0,0,1-.28,3.46H115.94q.65,6.84,4.17,9.72a13.88,13.88,0,0,0,9.07,2.88A24.39,24.39,0,0,0,139.34,47l.86,5.11a28.8,28.8,0,0,1-11.81,2.74A20.24,20.24,0,0,1,118.06,52.36Zm17-20.34a8.07,8.07,0,0,0-2.16-6q-2.16-2.16-6.48-2.16a9.66,9.66,0,0,0-6.55,2.05A11.42,11.42,0,0,0,116.51,32Z"/><path class="cls-2" d="M153.91,52.47A15.3,15.3,0,0,1,147.69,46a20.18,20.18,0,0,1-2.09-9.26q0-8.34,4.71-13.46t14-5.11A21.22,21.22,0,0,1,174,20.22l-1,5.68a21,21,0,0,0-8.78-2q-5.77,0-8.86,3.27t-3.1,9.26q0,6,3,9.36T164,49.16A19.88,19.88,0,0,0,173,47l.86,5.18a15.15,15.15,0,0,1-4.35,1.88,21.08,21.08,0,0,1-5.73.79A19.51,19.51,0,0,1,153.91,52.47Z"/><path class="cls-2" d="M185.13,52.44a15.9,15.9,0,0,1-6-6.59A20.7,20.7,0,0,1,177,36.49a20.64,20.64,0,0,1,2.09-9.36,15.84,15.84,0,0,1,6-6.59,19.3,19.3,0,0,1,18.68,0,15.81,15.81,0,0,1,6.09,6.59A20.64,20.64,0,0,1,212,36.49a20.7,20.7,0,0,1-2.08,9.36,15.87,15.87,0,0,1-6.09,6.59,19.3,19.3,0,0,1-18.68,0Zm17.39-6.66q2.83-3.31,2.84-9.29t-2.84-9.29a11.4,11.4,0,0,0-16.06,0q-2.85,3.32-2.84,9.29t2.84,9.29a11.4,11.4,0,0,0,16.06,0Z"/><path class="cls-2" d="M224.19,52.36a16.07,16.07,0,0,1-6.45-6.73,20.48,20.48,0,0,1-2.16-9.43,20.91,20.91,0,0,1,2.16-9.54,16,16,0,0,1,6.48-6.77,20.85,20.85,0,0,1,10.51-2.48,19.43,19.43,0,0,1,9.65,2.3l-.72,7.2a17.34,17.34,0,0,0-8.06-2,10.38,10.38,0,0,0-8,3.09,11.58,11.58,0,0,0-2.88,8.21,11.49,11.49,0,0,0,3,8.1,10.14,10.14,0,0,0,7.85,3.2,16.26,16.26,0,0,0,8.2-2.37l.8,7.56A18.48,18.48,0,0,1,240,54.27a25.2,25.2,0,0,1-5.5.58A20,20,0,0,1,224.19,52.36Z"/><path class="cls-2" d="M252.08,52.22a10,10,0,0,1-2.3-6.8V.13h8.93V41.74a17.93,17.93,0,0,0,.32,4.07,1.86,1.86,0,0,0,1.15,1.44,11,11,0,0,0,2.85.25l-.79,7.35H259C255.92,54.85,253.62,54,252.08,52.22Z"/><path class="cls-2" d="M274.12,52.33a17,17,0,0,1-6.41-6.77,19.78,19.78,0,0,1-2.23-9.36,20.2,20.2,0,0,1,2.23-9.43,16.89,16.89,0,0,1,6.41-6.84,20.55,20.55,0,0,1,19.72,0,16.89,16.89,0,0,1,6.41,6.84,20.2,20.2,0,0,1,2.23,9.43,19.78,19.78,0,0,1-2.23,9.36,17,17,0,0,1-6.41,6.77,20.55,20.55,0,0,1-19.72,0Zm16.74-7.92a12.78,12.78,0,0,0,2.48-8.21,13,13,0,0,0-2.48-8.32,9.13,9.13,0,0,0-13.76,0,13,13,0,0,0-2.48,8.32,12.78,12.78,0,0,0,2.48,8.21,9.2,9.2,0,0,0,13.76,0Z"/><path class="cls-2" d="M339.35,18.13v36H331L330.85,52A16.05,16.05,0,0,1,327,54a11.72,11.72,0,0,1-4.18.83q-8,0-11.63-4.61T307.6,37.5V18.13h8.92V37.5q0,5,1.7,7.45c1.12,1.61,2.94,2.41,5.43,2.41a8.5,8.5,0,0,0,6.77-3V18.13Z"/><path class="cls-2" d="M379.81.13v54h-8.42l-.15-2.31a15.9,15.9,0,0,1-4.35,2.27,16.84,16.84,0,0,1-5.37.76,15.53,15.53,0,0,1-14.76-9.29,22.3,22.3,0,0,1-1.94-9.36,22.3,22.3,0,0,1,1.94-9.36,16.46,16.46,0,0,1,24.12-6.41V.13ZM369.19,44.48q2.13-3,2.13-8.28t-2.13-8.28a7.25,7.25,0,0,0-6.37-3A7.71,7.71,0,0,0,356.3,28,13.29,13.29,0,0,0,354,36.2a13.29,13.29,0,0,0,2.34,8.21,7.71,7.71,0,0,0,6.52,3.09A7.25,7.25,0,0,0,369.19,44.48Z"/><path class="cls-3" d="M44.89,66.23c-4.16,0-6.15,1.89-9.74,4.24a28.42,28.42,0,0,0-3-5,16.34,16.34,0,0,0-3.37-3.14c-3.89-2.74-10.52-2-14.56,1.28a10.28,10.28,0,0,0-3,4c0,1.12,0,2.22,0,3.26C11.2,80.46,20.62,83,25.6,83H66.66c5,0,14.4-2.55,14.4-12.17,0-1.21,0-2.51,0-3.83a13,13,0,0,0-6.73-4.89c-2-.71-4.07-1.15-5.89-1.65C64,55.06,63.73,54.91,56.37,54c-11.24-10.35-24.13-9.34-29.81,1.8,5.59,1.72,7.59,4.72,10.45,8.07,9.09-4.11,16.16-2,19.14,6.65-.65.56-2.12,1.25-3,2C51.15,70.47,49.5,66.19,44.89,66.23Z"/><path class="cls-1" d="M51.49,22.09c-5.92,0-9.74,2.48-13.61,6.75a1,1,0,0,0-.31.75,1.06,1.06,0,0,0,1.82.75c.82-.73,1.56-1.54,2.36-2.29a13,13,0,0,1,9.74-3.82,1.07,1.07,0,1,0,0-2.14Z"/><path class="cls-1" d="M329.6,85.69a5.29,5.29,0,0,1-1.25-.16,7,7,0,0,1-1.34-.45,6,6,0,0,1-1.26-.72,3.93,3.93,0,0,1-1-1l-.32,2h-2.56v-24h2.88v10a5.93,5.93,0,0,1,4.86-2,6.29,6.29,0,0,1,2.88.66,6.92,6.92,0,0,1,2.24,1.77,8.27,8.27,0,0,1,1.44,2.61,9.59,9.59,0,0,1,.52,3.12,9.34,9.34,0,0,1-.55,3.19,8.19,8.19,0,0,1-1.5,2.59,7.1,7.1,0,0,1-2.26,1.74A6.19,6.19,0,0,1,329.6,85.69Zm-.32-13.76a4.46,4.46,0,0,0-1.77.37A4.19,4.19,0,0,0,326,73.39a5.52,5.52,0,0,0-1,1.76,7,7,0,0,0-.38,2.38A7.22,7.22,0,0,0,325,80a4.92,4.92,0,0,0,1,1.76,4.16,4.16,0,0,0,1.49,1.06,4.6,4.6,0,0,0,1.81.35,3.88,3.88,0,0,0,1.86-.45,4.29,4.29,0,0,0,1.41-1.21,5.88,5.88,0,0,0,.89-1.79,7.31,7.31,0,0,0,.32-2.15,7.52,7.52,0,0,0-.32-2.21,5.49,5.49,0,0,0-.91-1.77,4.49,4.49,0,0,0-1.42-1.19A4,4,0,0,0,329.28,71.93Z"/><path class="cls-1" d="M353,77.53H341.66c.35,3.74,2.31,5.6,5.89,5.6a11.12,11.12,0,0,0,4.52-.93l.38,2.28a13.18,13.18,0,0,1-5.25,1.21,9.42,9.42,0,0,1-3.57-.64A7.87,7.87,0,0,1,341,83.31a7.46,7.46,0,0,1-1.66-2.63,9,9,0,0,1-.58-3.27,8.87,8.87,0,0,1,.55-3.17,7.61,7.61,0,0,1,1.53-2.55A7.12,7.12,0,0,1,343.22,70a7.78,7.78,0,0,1,3.18-.63,8.05,8.05,0,0,1,2.75.45,5.92,5.92,0,0,1,2.13,1.31,6.09,6.09,0,0,1,1.38,2.1,7.35,7.35,0,0,1,.49,2.77A7.52,7.52,0,0,1,353,77.53Zm-6.68-5.6q-3.49,0-4.42,3.62h8.26a3.58,3.58,0,0,0-1-2.67A4,4,0,0,0,346.34,71.93Z"/><path class="cls-1" d="M364.29,83.39l-.22,2.3h-2.6a4,4,0,0,1-3.08-1.09,3.72,3.72,0,0,1-1-2.65v-10h-2.69l.25-2.24h2.44V65.82l2.88-.29v4.16h4.13v2.24h-4.13v8.26c0,.75,0,1.33.06,1.76a1.32,1.32,0,0,0,1.34,1.36,18,18,0,0,0,1.89.08Z"/><path class="cls-1" d="M380,83.39l-.45,2.3h-.22a9,9,0,0,1-1.6-.11,3,3,0,0,1-1.09-.38,2.34,2.34,0,0,1-.75-.72,7.23,7.23,0,0,1-.59-1.09,6.15,6.15,0,0,1-4.8,2.3A4.85,4.85,0,0,1,367,84.43a4.34,4.34,0,0,1-1.32-3.28,4,4,0,0,1,.89-2.69,6.49,6.49,0,0,1,2.23-1.7,11.65,11.65,0,0,1,3-.91,23,23,0,0,1,3.23-.3,3.9,3.9,0,0,0-.81-2.87,3.8,3.8,0,0,0-2.61-.75,7.33,7.33,0,0,0-4.13,1.41L367.07,71a8.49,8.49,0,0,1,5.32-1.63,7.34,7.34,0,0,1,2.55.4,3.81,3.81,0,0,1,1.72,1.28,6.12,6.12,0,0,1,1,2.32,17.62,17.62,0,0,1,.3,3.52v3.2a7.19,7.19,0,0,0,.32,2.58q.31.72,1.47.72Zm-5-2.11V77.53a12.46,12.46,0,0,0-4.94.91A2.69,2.69,0,0,0,368.61,81a2.13,2.13,0,0,0,2.43,2.4,4.61,4.61,0,0,0,2.23-.58A5.23,5.23,0,0,0,375,81.28Z"/></svg>
